<mxfile host="app.diagrams.net" modified="2022-06-04T19:16:57.596Z" agent="5.0 (Macintosh; Intel Mac OS X 10_15_7) AppleWebKit/537.36 (KHTML, like Gecko) Chrome/102.0.5005.61 Safari/537.36" etag="DKrWtHDGZe90F9er-Riw" version="19.0.0" type="github">
  <diagram id="LVEcW-Qs0OGT7WxNg7Wh" name="Page-1">
    <mxGraphModel dx="946" dy="687" grid="1" gridSize="10" guides="1" tooltips="1" connect="1" arrows="1" fold="1" page="1" pageScale="1" pageWidth="850" pageHeight="1100" math="0" shadow="0">
      <root>
        <mxCell id="0" />
        <mxCell id="1" parent="0" />
        <mxCell id="q5mR1AkeYdZxqQHor3hh-22" value="Vertical Tree Layout" style="swimlane;startSize=20;horizontal=1;childLayout=treeLayout;horizontalTree=0;resizable=0;containerType=tree;rounded=1;" vertex="1" parent="1">
          <mxGeometry x="40" y="40" width="140" height="460" as="geometry" />
        </mxCell>
        <mxCell id="q5mR1AkeYdZxqQHor3hh-23" value="Account" style="whiteSpace=wrap;html=1;rounded=1;" vertex="1" parent="q5mR1AkeYdZxqQHor3hh-22">
          <mxGeometry x="20" y="40" width="100" height="40" as="geometry" />
        </mxCell>
        <mxCell id="q5mR1AkeYdZxqQHor3hh-26" value="Regions" style="whiteSpace=wrap;html=1;rounded=1;" vertex="1" parent="q5mR1AkeYdZxqQHor3hh-22">
          <mxGeometry x="20" y="130" width="100" height="40" as="geometry" />
        </mxCell>
        <mxCell id="q5mR1AkeYdZxqQHor3hh-27" value="" style="edgeStyle=elbowEdgeStyle;elbow=vertical;html=1;rounded=1;curved=1;" edge="1" parent="q5mR1AkeYdZxqQHor3hh-22" source="q5mR1AkeYdZxqQHor3hh-23" target="q5mR1AkeYdZxqQHor3hh-26">
          <mxGeometry relative="1" as="geometry" />
        </mxCell>
        <mxCell id="q5mR1AkeYdZxqQHor3hh-28" value="" style="edgeStyle=elbowEdgeStyle;elbow=vertical;html=1;rounded=1;curved=1;" edge="1" target="q5mR1AkeYdZxqQHor3hh-29" source="q5mR1AkeYdZxqQHor3hh-26" parent="q5mR1AkeYdZxqQHor3hh-22">
          <mxGeometry relative="1" as="geometry">
            <mxPoint x="350" y="160" as="sourcePoint" />
          </mxGeometry>
        </mxCell>
        <mxCell id="q5mR1AkeYdZxqQHor3hh-29" value="Locations" style="whiteSpace=wrap;html=1;rounded=1;" vertex="1" parent="q5mR1AkeYdZxqQHor3hh-22">
          <mxGeometry x="20" y="220" width="100" height="40" as="geometry" />
        </mxCell>
        <mxCell id="q5mR1AkeYdZxqQHor3hh-30" value="" style="edgeStyle=elbowEdgeStyle;elbow=vertical;html=1;rounded=1;curved=1;" edge="1" target="q5mR1AkeYdZxqQHor3hh-31" source="q5mR1AkeYdZxqQHor3hh-29" parent="q5mR1AkeYdZxqQHor3hh-22">
          <mxGeometry relative="1" as="geometry">
            <mxPoint x="350" y="250" as="sourcePoint" />
          </mxGeometry>
        </mxCell>
        <mxCell id="q5mR1AkeYdZxqQHor3hh-31" value="Areas" style="whiteSpace=wrap;html=1;rounded=1;" vertex="1" parent="q5mR1AkeYdZxqQHor3hh-22">
          <mxGeometry x="20" y="310" width="100" height="40" as="geometry" />
        </mxCell>
        <mxCell id="q5mR1AkeYdZxqQHor3hh-32" value="" style="edgeStyle=elbowEdgeStyle;elbow=vertical;html=1;rounded=1;curved=1;" edge="1" target="q5mR1AkeYdZxqQHor3hh-33" source="q5mR1AkeYdZxqQHor3hh-31" parent="q5mR1AkeYdZxqQHor3hh-22">
          <mxGeometry relative="1" as="geometry">
            <mxPoint x="350" y="340" as="sourcePoint" />
          </mxGeometry>
        </mxCell>
        <mxCell id="q5mR1AkeYdZxqQHor3hh-33" value="Sources" style="whiteSpace=wrap;html=1;rounded=1;" vertex="1" parent="q5mR1AkeYdZxqQHor3hh-22">
          <mxGeometry x="20" y="400" width="100" height="40" as="geometry" />
        </mxCell>
        <mxCell id="q5mR1AkeYdZxqQHor3hh-40" value="" style="edgeStyle=orthogonalEdgeStyle;curved=1;rounded=1;orthogonalLoop=1;jettySize=auto;html=1;endArrow=ERmany;endFill=0;" edge="1" parent="1" source="q5mR1AkeYdZxqQHor3hh-34" target="q5mR1AkeYdZxqQHor3hh-38">
          <mxGeometry relative="1" as="geometry" />
        </mxCell>
        <mxCell id="q5mR1AkeYdZxqQHor3hh-34" value="Account" style="swimlane;childLayout=stackLayout;horizontal=1;startSize=30;horizontalStack=0;rounded=1;fontSize=14;fontStyle=0;strokeWidth=2;resizeParent=0;resizeLast=1;shadow=0;dashed=0;align=center;" vertex="1" parent="1">
          <mxGeometry x="220" y="40" width="160" height="120" as="geometry" />
        </mxCell>
        <mxCell id="q5mR1AkeYdZxqQHor3hh-35" value="+Attribute1&#xa;+Attribute2&#xa;+Attribute3" style="align=left;strokeColor=none;fillColor=none;spacingLeft=4;fontSize=12;verticalAlign=top;resizable=0;rotatable=0;part=1;rounded=1;" vertex="1" parent="q5mR1AkeYdZxqQHor3hh-34">
          <mxGeometry y="30" width="160" height="90" as="geometry" />
        </mxCell>
        <mxCell id="q5mR1AkeYdZxqQHor3hh-38" value="Devices" style="swimlane;childLayout=stackLayout;horizontal=1;startSize=30;horizontalStack=0;rounded=1;fontSize=14;fontStyle=0;strokeWidth=2;resizeParent=0;resizeLast=1;shadow=0;dashed=0;align=center;" vertex="1" parent="1">
          <mxGeometry x="220" y="240" width="160" height="120" as="geometry" />
        </mxCell>
        <mxCell id="q5mR1AkeYdZxqQHor3hh-39" value="+Attribute1&#xa;+Attribute2&#xa;+Attribute3" style="align=left;strokeColor=none;fillColor=none;spacingLeft=4;fontSize=12;verticalAlign=top;resizable=0;rotatable=0;part=1;rounded=1;" vertex="1" parent="q5mR1AkeYdZxqQHor3hh-38">
          <mxGeometry y="30" width="160" height="90" as="geometry" />
        </mxCell>
        <mxCell id="q5mR1AkeYdZxqQHor3hh-45" value="" style="edgeStyle=orthogonalEdgeStyle;curved=1;rounded=1;orthogonalLoop=1;jettySize=auto;html=1;" edge="1" parent="1" source="q5mR1AkeYdZxqQHor3hh-41" target="q5mR1AkeYdZxqQHor3hh-44">
          <mxGeometry relative="1" as="geometry" />
        </mxCell>
        <mxCell id="q5mR1AkeYdZxqQHor3hh-41" value="" style="ellipse;strokeColor=#b85450;rounded=1;shadow=0;sketch=0;fillColor=#f8cecc;" vertex="1" parent="1">
          <mxGeometry x="490" y="210" width="10" height="10" as="geometry" />
        </mxCell>
        <mxCell id="q5mR1AkeYdZxqQHor3hh-47" value="" style="edgeStyle=orthogonalEdgeStyle;curved=0;rounded=1;sketch=1;orthogonalLoop=1;jettySize=auto;html=1;" edge="1" parent="1" source="q5mR1AkeYdZxqQHor3hh-44" target="q5mR1AkeYdZxqQHor3hh-46">
          <mxGeometry relative="1" as="geometry" />
        </mxCell>
        <mxCell id="q5mR1AkeYdZxqQHor3hh-44" value="Init" style="shape=umlState;rounded=1;verticalAlign=top;spacingTop=5;umlStateSymbol=collapseState;absoluteArcSize=1;arcSize=10;" vertex="1" parent="1">
          <mxGeometry x="580" y="185" width="140" height="60" as="geometry" />
        </mxCell>
        <mxCell id="q5mR1AkeYdZxqQHor3hh-49" value="" style="edgeStyle=orthogonalEdgeStyle;curved=0;rounded=1;sketch=1;orthogonalLoop=1;jettySize=auto;html=1;" edge="1" parent="1" source="q5mR1AkeYdZxqQHor3hh-46" target="q5mR1AkeYdZxqQHor3hh-48">
          <mxGeometry relative="1" as="geometry" />
        </mxCell>
        <mxCell id="q5mR1AkeYdZxqQHor3hh-46" value="Registered" style="shape=umlState;rounded=1;verticalAlign=top;spacingTop=5;umlStateSymbol=collapseState;absoluteArcSize=1;arcSize=10;" vertex="1" parent="1">
          <mxGeometry x="580" y="325" width="140" height="60" as="geometry" />
        </mxCell>
        <mxCell id="q5mR1AkeYdZxqQHor3hh-48" value="Provisioned" style="shape=umlState;rounded=1;verticalAlign=top;spacingTop=5;umlStateSymbol=collapseState;absoluteArcSize=1;arcSize=10;" vertex="1" parent="1">
          <mxGeometry x="580" y="465" width="140" height="60" as="geometry" />
        </mxCell>
      </root>
    </mxGraphModel>
  </diagram>
</mxfile>
